<svg xmlns="http://www.w3.org/2000/svg" width="150" height="93" viewBox="0 0 149 93"><defs><clipPath id="clip1"><path d="M28.48 35.66h91.864v21.754H28.48zm0 0"/></clipPath><clipPath id="clip2"><path d="M.09.04H92V93H.09zm0 0"/></clipPath><clipPath id="clip3"><path d="M.09.04H94V93H.09zm0 0"/></clipPath></defs><g id="surface1"><g clip-path="url(#clip1)"><path d="M33.371 57.102h-4.824l-.059-.989 1.516-.406 6.371-16.453 1.418-.895 6.555 17.348 1.52.406-.063.989h-5.29l-.062-.989 1.856-.406-1.887-4.89-.336-.903-3.527-8.953.644-.711-3.55 9.695-.344.934-1.73 4.828 1.855.406zm-.773-5.95V49.73c.394.02.972.043 1.73.063.766.02 1.684.031 2.754.031 1.055 0 1.961-.011 2.727-.031.757-.02 1.324-.043 1.695-.063v1.422c-.863-.02-1.68-.03-2.445-.047a186.047 186.047 0 00-3.895 0c-.742.016-1.598.028-2.566.047zm28.797 5.489l-3.465.773-.282-.375.036-2.043h-.098c-.656.848-1.316 1.445-1.977 1.797a4.48 4.48 0 01-2.132.527c-1.2 0-2.262-.273-3.188-.82a5.724 5.724 0 01-2.164-2.266c-.516-.96-.773-2.05-.773-3.265 0-1.055.168-2.032.507-2.926a6.955 6.955 0 011.422-2.324 6.647 6.647 0 012.094-1.524 5.906 5.906 0 012.5-.539c.66 0 1.34.086 2.04.262.702.176 1.288.473 1.769.887 0-.371-.008-.89-.02-1.555-.008-.66-.02-1.352-.031-2.074-.012-.723-.02-1.367-.035-1.938-.008-.566-.012-.93-.012-1.097l-2.477-.47-.054-.862 3.863-1.149.46.375a138.576 138.576 0 00-.073 3.797 415.625 415.625 0 00-.016 3.887l-.031 7.129c0 1.05.027 1.976.078 2.773.05.793.086 1.336.105 1.621l1.954.528zm-7.489-.965c.723 0 1.367-.14 1.934-.418.566-.278 1.168-.797 1.808-1.563V47.16c-.433-.851-.996-1.457-1.683-1.816a4.55 4.55 0 00-2.121-.54c-1.446 0-2.563.52-3.356 1.563-.797 1.043-1.191 2.363-1.191 3.953 0 1.692.45 3.008 1.348 3.946.894.941 1.984 1.41 3.261 1.41zm15.989 1.554h-.743l-5.351-11.898-1.45-.437.055-.958h5.106l.062.958-1.918.437 4.61 10.316-.77.028L73.7 45.332l-1.918-.437.063-.958h4.851l.063.958-1.45.437zm13.668-.128h-5.848l-.063-.989 2.078-.406c.016-.082.032-.203.043-.367.008-.164.02-.48.032-.945.011-.465.015-1.165.015-2.094v-1.86c0-1.011-.023-1.925-.066-2.742-.035-.816-.078-1.367-.117-1.656l-2.075-.438v-.863l3.747-.992.277.34c-.043.64-.082 1.262-.113 1.86a41.79 41.79 0 00-.047 2.136v3.902c0 1.055.015 1.895.047 2.528.03.629.062 1.027.082 1.191l2.07.406zm-2.938-17.317c-.395 0-.754-.14-1.086-.418-.328-.281-.492-.648-.492-1.105 0-.43.164-.793.492-1.086.332-.285.691-.43 1.086-.43.39 0 .742.145 1.05.43.31.293.462.656.462 1.086 0 .457-.153.824-.461 1.105-.309.278-.66.418-1.051.418zm10.05 17.567a9.14 9.14 0 01-2.167-.262 9.072 9.072 0 01-1.887-.664l-.152-3.16h1.3l.586 2.226c.66.516 1.497.774 2.504.774.723 0 1.329-.192 1.825-.57.492-.387.742-.9.742-1.536a2.09 2.09 0 00-.637-1.535c-.422-.426-1.2-.895-2.328-1.41-1.426-.66-2.43-1.274-3.016-1.84-.59-.57-.886-1.3-.886-2.191 0-.68.203-1.282.609-1.809.398-.527.953-.941 1.664-1.234.715-.301 1.535-.453 2.465-.453.531 0 1.074.035 1.633.109.558.07 1.03.191 1.425.355l.344 3.032h-1.21l-.774-2.043a2.75 2.75 0 00-.742-.29 3.813 3.813 0 00-.957-.109c-.786 0-1.41.188-1.875.559-.461.37-.696.844-.696 1.422 0 .68.243 1.222.73 1.629.485.402 1.325.902 2.52 1.5 1.36.664 2.305 1.28 2.832 1.859.524.578.785 1.273.785 2.078 0 1.012-.445 1.86-1.332 2.54-.886.683-1.988 1.023-3.304 1.023zm13.669 0c-1.114 0-2.137-.254-3.067-.762-.922-.504-1.664-1.246-2.222-2.227-.559-.984-.836-2.175-.836-3.582 0-1.488.281-2.761.847-3.824.57-1.066 1.32-1.883 2.243-2.45a5.47 5.47 0 013.004-.82c1.484.024 2.667.528 3.539 1.516.878.992 1.32 2.5 1.32 4.527v.461h-9.75v-1.234h8.195l-.277.246v-.465c0-1.281-.29-2.27-.863-2.96-.579-.692-1.383-1.036-2.41-1.036-.622 0-1.227.188-1.813.559-.586.37-1.07.93-1.45 1.668-.386.746-.577 1.687-.577 2.824v.246c0 1.816.433 3.215 1.296 4.195.872.98 1.965 1.473 3.282 1.473.765 0 1.433-.148 2.007-.45.583-.296 1.13-.777 1.641-1.44l.719.62c-.578.993-1.277 1.723-2.09 2.204-.816.472-1.73.71-2.738.71zm13.636-.25h-6.34l-.062-.957 1.918-.438a4.74 4.74 0 00.043-.57c.016-.258.023-.621.035-1.086.012-.465.016-1.051.016-1.75v-2.477c0-.722-.028-1.465-.082-2.219a27.035 27.035 0 00-.137-1.562l-1.976-.438v-.863l3.52-.992.28.371-.152 2.664.094.031c.66-1.218 1.308-2.039 1.945-2.46.64-.422 1.219-.637 1.734-.637.454 0 .817.101 1.098.304.277.207.418.5.418.872 0 .394-.144.695-.434.902-.289.207-.671.308-1.144.308a2.1 2.1 0 01-.957-.234 3.073 3.073 0 01-.805-.57l.367.246c-.39.266-.777.648-1.16 1.144-.379.496-.734 1.118-1.062 1.86l.031 3.101c.016.41.035.875.059 1.391.02.516.043 1.016.062 1.504.02.484.043.871.063 1.16l2.691.375zm0 0"/></g><g clip-path="url(#clip2)"><path d="M.09 46.54C.09 20.835 20.887 0 46.54 0c20.987 0 38.726 13.945 44.483 33.094H90C84.273 14.496 66.98.98 46.54.98 21.425.98 1.065 21.38 1.065 46.54c0 25.16 20.36 45.554 45.473 45.554C66.98 92.094 84.273 78.578 90 59.98h1.023C85.266 79.13 67.527 93.074 46.54 93.074 20.887 93.074.09 72.238.09 46.54zm0 0"/></g><g clip-path="url(#clip3)"><path d="M.005 123.604C.005 55.338 55.343 0 123.6 0c55.847 0 103.046 37.038 118.367 87.894h-2.723C224.006 38.5 177.992 2.604 123.6 2.604c-66.823 0-120.997 54.177-120.997 121 0 66.823 54.174 120.99 120.997 120.99 54.392 0 100.406-35.897 115.644-85.291h2.723c-15.32 50.857-62.52 87.894-118.367 87.894C55.343 247.197.005 191.86.005 123.604zm0 0" transform="matrix(.37582 0 0 .37652 .088 0)"/></g></g></svg>