<svg xmlns="http://www.w3.org/2000/svg" width="25" height="29" viewBox="0 0 25 28"><path d="M21.254 5.309c-2.336-2.297-5.45-3.559-8.758-3.559C5.664 1.75.106 7.195.106 13.89c0 2.137.57 4.227 1.652 6.07L0 26.25l6.566-1.691a12.552 12.552 0 005.922 1.476h.008C19.32 26.035 25 20.59 25 13.895c0-3.243-1.406-6.29-3.746-8.586zm-8.758 18.683c-1.855 0-3.668-.488-5.246-1.406l-.375-.219-3.895 1 1.04-3.722-.247-.383A9.89 9.89 0 012.2 13.89C2.2 8.328 6.82 3.8 12.5 3.8c2.75 0 5.336 1.05 7.277 2.957 1.942 1.91 3.137 4.441 3.13 7.137 0 5.57-4.739 10.097-10.41 10.097zm5.645-7.558c-.305-.153-1.828-.887-2.114-.985-.285-.105-.492-.152-.699.153-.207.308-.797.984-.98 1.191-.18.203-.364.23-.672.078-1.817-.89-3.012-1.59-4.211-3.61-.32-.534.316-.495.91-1.656.098-.203.05-.378-.027-.53-.078-.153-.7-1.645-.957-2.255-.25-.59-.508-.508-.696-.52-.18-.01-.386-.01-.593-.01-.207 0-.54.077-.825.378-.285.305-1.082 1.039-1.082 2.531 0 1.492 1.11 2.938 1.262 3.14.156.204 2.18 3.266 5.29 4.583 1.964.832 2.733.902 3.714.762.598-.09 1.832-.735 2.09-1.446.254-.71.254-1.316.176-1.445-.07-.137-.278-.211-.586-.36zm0 0" id="surface1"/></svg>